<mxfile host="app.diagrams.net" modified="2024-05-16T13:55:46.635Z" agent="Mozilla/5.0 (Windows NT 10.0; Win64; x64) AppleWebKit/537.36 (KHTML, like Gecko) Chrome/123.0.0.0 Safari/537.36 OPR/109.0.0.0" etag="nzGn_zipdJzjuA02_YaA" version="24.4.0" type="github">
  <diagram id="C5RBs43oDa-KdzZeNtuy" name="Page-1">
    <mxGraphModel dx="3483" dy="1087" grid="1" gridSize="10" guides="1" tooltips="1" connect="1" arrows="1" fold="1" page="1" pageScale="1" pageWidth="827" pageHeight="1169" background="#ffffff" math="0" shadow="0">
      <root>
        <mxCell id="WIyWlLk6GJQsqaUBKTNV-0" />
        <mxCell id="WIyWlLk6GJQsqaUBKTNV-1" parent="WIyWlLk6GJQsqaUBKTNV-0" />
        <mxCell id="WIyWlLk6GJQsqaUBKTNV-2" value="" style="rounded=1;html=1;jettySize=auto;orthogonalLoop=1;fontSize=11;endArrow=block;endFill=0;endSize=8;strokeWidth=1;shadow=0;labelBackgroundColor=none;edgeStyle=orthogonalEdgeStyle;" parent="WIyWlLk6GJQsqaUBKTNV-1" source="WIyWlLk6GJQsqaUBKTNV-3" target="WIyWlLk6GJQsqaUBKTNV-6" edge="1">
          <mxGeometry relative="1" as="geometry" />
        </mxCell>
        <mxCell id="WIyWlLk6GJQsqaUBKTNV-3" value="Початок програми" style="rounded=1;whiteSpace=wrap;html=1;fontSize=12;glass=0;strokeWidth=1;shadow=0;" parent="WIyWlLk6GJQsqaUBKTNV-1" vertex="1">
          <mxGeometry x="-370" y="40" width="160" height="40" as="geometry" />
        </mxCell>
        <mxCell id="u45l-e3sz1boXGOpI4xn-57" style="rounded=0;orthogonalLoop=1;jettySize=auto;html=1;entryX=0.1;entryY=0.5;entryDx=0;entryDy=0;entryPerimeter=0;edgeStyle=orthogonalEdgeStyle;curved=1;strokeColor=default;" parent="WIyWlLk6GJQsqaUBKTNV-1" source="WIyWlLk6GJQsqaUBKTNV-6" target="u45l-e3sz1boXGOpI4xn-54" edge="1">
          <mxGeometry relative="1" as="geometry">
            <mxPoint x="-690" y="280" as="targetPoint" />
            <Array as="points">
              <mxPoint x="-790" y="140" />
              <mxPoint x="-790" y="520" />
            </Array>
          </mxGeometry>
        </mxCell>
        <mxCell id="WIyWlLk6GJQsqaUBKTNV-6" value="Перевірка наявності встановленого криптогаманця" style="rhombus;whiteSpace=wrap;html=1;shadow=0;fontFamily=Helvetica;fontSize=12;align=center;strokeWidth=1;spacing=6;spacingTop=-4;rounded=1;" parent="WIyWlLk6GJQsqaUBKTNV-1" vertex="1">
          <mxGeometry x="-390" y="120" width="200" height="160" as="geometry" />
        </mxCell>
        <mxCell id="u45l-e3sz1boXGOpI4xn-14" style="edgeStyle=orthogonalEdgeStyle;rounded=1;orthogonalLoop=1;jettySize=auto;html=1;exitX=0.5;exitY=1;exitDx=0;exitDy=0;" parent="WIyWlLk6GJQsqaUBKTNV-1" edge="1">
          <mxGeometry relative="1" as="geometry">
            <mxPoint x="-430" y="320" as="sourcePoint" />
            <mxPoint x="-430" y="320" as="targetPoint" />
          </mxGeometry>
        </mxCell>
        <mxCell id="u45l-e3sz1boXGOpI4xn-27" style="edgeStyle=orthogonalEdgeStyle;rounded=1;orthogonalLoop=1;jettySize=auto;html=1;entryX=1;entryY=0.5;entryDx=0;entryDy=0;" parent="WIyWlLk6GJQsqaUBKTNV-1" source="u45l-e3sz1boXGOpI4xn-20" target="u45l-e3sz1boXGOpI4xn-26" edge="1">
          <mxGeometry relative="1" as="geometry" />
        </mxCell>
        <mxCell id="u45l-e3sz1boXGOpI4xn-20" value="Підключення за допомогою QR-коду та інших пристоїв з наявним криптогаманцем" style="rounded=0;whiteSpace=wrap;html=1;" parent="WIyWlLk6GJQsqaUBKTNV-1" vertex="1">
          <mxGeometry x="-190" y="240" width="170" height="80" as="geometry" />
        </mxCell>
        <mxCell id="u45l-e3sz1boXGOpI4xn-28" style="edgeStyle=orthogonalEdgeStyle;rounded=1;orthogonalLoop=1;jettySize=auto;html=1;entryX=0;entryY=0.5;entryDx=0;entryDy=0;" parent="WIyWlLk6GJQsqaUBKTNV-1" source="u45l-e3sz1boXGOpI4xn-21" target="u45l-e3sz1boXGOpI4xn-26" edge="1">
          <mxGeometry relative="1" as="geometry" />
        </mxCell>
        <mxCell id="u45l-e3sz1boXGOpI4xn-21" value="Підключення за допомогою браузерного розширення" style="rounded=0;whiteSpace=wrap;html=1;" parent="WIyWlLk6GJQsqaUBKTNV-1" vertex="1">
          <mxGeometry x="-560" y="240" width="170" height="80" as="geometry" />
        </mxCell>
        <mxCell id="u45l-e3sz1boXGOpI4xn-23" style="edgeStyle=orthogonalEdgeStyle;rounded=1;orthogonalLoop=1;jettySize=auto;html=1;entryX=0.468;entryY=0.025;entryDx=0;entryDy=0;entryPerimeter=0;" parent="WIyWlLk6GJQsqaUBKTNV-1" source="WIyWlLk6GJQsqaUBKTNV-6" target="u45l-e3sz1boXGOpI4xn-20" edge="1">
          <mxGeometry relative="1" as="geometry">
            <Array as="points">
              <mxPoint x="-110" y="200" />
            </Array>
          </mxGeometry>
        </mxCell>
        <mxCell id="u45l-e3sz1boXGOpI4xn-32" value="Ні" style="edgeLabel;html=1;align=center;verticalAlign=middle;resizable=0;points=[];rounded=1;" parent="u45l-e3sz1boXGOpI4xn-23" vertex="1" connectable="0">
          <mxGeometry x="-0.5394" y="-3" relative="1" as="geometry">
            <mxPoint x="12" y="-13" as="offset" />
          </mxGeometry>
        </mxCell>
        <mxCell id="u45l-e3sz1boXGOpI4xn-24" style="edgeStyle=orthogonalEdgeStyle;rounded=1;orthogonalLoop=1;jettySize=auto;html=1;entryX=0.55;entryY=-0.017;entryDx=0;entryDy=0;entryPerimeter=0;" parent="WIyWlLk6GJQsqaUBKTNV-1" source="WIyWlLk6GJQsqaUBKTNV-6" target="u45l-e3sz1boXGOpI4xn-21" edge="1">
          <mxGeometry relative="1" as="geometry">
            <Array as="points">
              <mxPoint x="-466" y="200" />
            </Array>
          </mxGeometry>
        </mxCell>
        <mxCell id="u45l-e3sz1boXGOpI4xn-31" value="Так" style="edgeLabel;html=1;align=center;verticalAlign=middle;resizable=0;points=[];rounded=1;" parent="u45l-e3sz1boXGOpI4xn-24" vertex="1" connectable="0">
          <mxGeometry x="-0.4442" y="1" relative="1" as="geometry">
            <mxPoint x="-8" y="-11" as="offset" />
          </mxGeometry>
        </mxCell>
        <mxCell id="u45l-e3sz1boXGOpI4xn-26" value="Процес автентифікації за допомогою підпису" style="rounded=0;whiteSpace=wrap;html=1;" parent="WIyWlLk6GJQsqaUBKTNV-1" vertex="1">
          <mxGeometry x="-350" y="420" width="120" height="80" as="geometry" />
        </mxCell>
        <mxCell id="u45l-e3sz1boXGOpI4xn-41" style="edgeStyle=orthogonalEdgeStyle;rounded=1;orthogonalLoop=1;jettySize=auto;html=1;entryX=0.5;entryY=0;entryDx=0;entryDy=0;" parent="WIyWlLk6GJQsqaUBKTNV-1" source="u45l-e3sz1boXGOpI4xn-33" target="u45l-e3sz1boXGOpI4xn-38" edge="1">
          <mxGeometry relative="1" as="geometry">
            <Array as="points">
              <mxPoint x="175" y="180" />
            </Array>
          </mxGeometry>
        </mxCell>
        <mxCell id="u45l-e3sz1boXGOpI4xn-43" value="Так" style="edgeLabel;html=1;align=center;verticalAlign=middle;resizable=0;points=[];rounded=1;" parent="u45l-e3sz1boXGOpI4xn-41" vertex="1" connectable="0">
          <mxGeometry x="-0.3407" y="-3" relative="1" as="geometry">
            <mxPoint y="-7" as="offset" />
          </mxGeometry>
        </mxCell>
        <mxCell id="u45l-e3sz1boXGOpI4xn-49" style="edgeStyle=orthogonalEdgeStyle;rounded=1;orthogonalLoop=1;jettySize=auto;html=1;entryX=0.5;entryY=0;entryDx=0;entryDy=0;" parent="WIyWlLk6GJQsqaUBKTNV-1" source="u45l-e3sz1boXGOpI4xn-33" target="u45l-e3sz1boXGOpI4xn-39" edge="1">
          <mxGeometry relative="1" as="geometry">
            <Array as="points">
              <mxPoint x="625" y="180" />
            </Array>
          </mxGeometry>
        </mxCell>
        <mxCell id="u45l-e3sz1boXGOpI4xn-50" value="Ні" style="edgeLabel;html=1;align=center;verticalAlign=middle;resizable=0;points=[];rounded=1;" parent="u45l-e3sz1boXGOpI4xn-49" vertex="1" connectable="0">
          <mxGeometry x="-0.4049" y="-2" relative="1" as="geometry">
            <mxPoint x="7" y="-12" as="offset" />
          </mxGeometry>
        </mxCell>
        <mxCell id="u45l-e3sz1boXGOpI4xn-33" value="&lt;div style=&quot;font-size: 12px;&quot;&gt;&lt;span style=&quot;background-color: initial;&quot;&gt;&lt;font style=&quot;font-size: 12px;&quot;&gt;Перевірка&amp;nbsp;&lt;/font&gt;&lt;/span&gt;&lt;span style=&quot;background-color: initial;&quot;&gt;дозволу на автентифікацію&lt;/span&gt;&lt;/div&gt;" style="rhombus;whiteSpace=wrap;html=1;rounded=1;align=center;verticalAlign=middle;horizontal=1;fontSize=10;" parent="WIyWlLk6GJQsqaUBKTNV-1" vertex="1">
          <mxGeometry x="260" y="120" width="280" height="120" as="geometry" />
        </mxCell>
        <mxCell id="u45l-e3sz1boXGOpI4xn-34" value="" style="ellipse;whiteSpace=wrap;html=1;aspect=fixed;rounded=1;" parent="WIyWlLk6GJQsqaUBKTNV-1" vertex="1">
          <mxGeometry x="-310" y="540" width="40" height="40" as="geometry" />
        </mxCell>
        <mxCell id="u45l-e3sz1boXGOpI4xn-35" value="" style="endArrow=none;html=1;rounded=1;exitX=0.5;exitY=0;exitDx=0;exitDy=0;entryX=0.5;entryY=1;entryDx=0;entryDy=0;" parent="WIyWlLk6GJQsqaUBKTNV-1" source="u45l-e3sz1boXGOpI4xn-34" target="u45l-e3sz1boXGOpI4xn-26" edge="1">
          <mxGeometry width="50" height="50" relative="1" as="geometry">
            <mxPoint x="-280" y="320" as="sourcePoint" />
            <mxPoint x="-230" y="270" as="targetPoint" />
          </mxGeometry>
        </mxCell>
        <mxCell id="u45l-e3sz1boXGOpI4xn-36" value="" style="ellipse;whiteSpace=wrap;html=1;aspect=fixed;rounded=1;" parent="WIyWlLk6GJQsqaUBKTNV-1" vertex="1">
          <mxGeometry x="380" y="40" width="40" height="40" as="geometry" />
        </mxCell>
        <mxCell id="u45l-e3sz1boXGOpI4xn-37" value="" style="endArrow=none;html=1;rounded=1;entryX=0.5;entryY=1;entryDx=0;entryDy=0;exitX=0.5;exitY=0;exitDx=0;exitDy=0;" parent="WIyWlLk6GJQsqaUBKTNV-1" source="u45l-e3sz1boXGOpI4xn-33" target="u45l-e3sz1boXGOpI4xn-36" edge="1">
          <mxGeometry width="50" height="50" relative="1" as="geometry">
            <mxPoint x="60" y="240" as="sourcePoint" />
            <mxPoint x="110" y="190" as="targetPoint" />
          </mxGeometry>
        </mxCell>
        <mxCell id="u45l-e3sz1boXGOpI4xn-46" style="edgeStyle=orthogonalEdgeStyle;rounded=1;orthogonalLoop=1;jettySize=auto;html=1;exitX=0.5;exitY=1;exitDx=0;exitDy=0;entryX=0.5;entryY=0;entryDx=0;entryDy=0;" parent="WIyWlLk6GJQsqaUBKTNV-1" source="u45l-e3sz1boXGOpI4xn-38" target="u45l-e3sz1boXGOpI4xn-45" edge="1">
          <mxGeometry relative="1" as="geometry" />
        </mxCell>
        <mxCell id="u45l-e3sz1boXGOpI4xn-38" value="Автентифікація успішна" style="rounded=0;whiteSpace=wrap;html=1;" parent="WIyWlLk6GJQsqaUBKTNV-1" vertex="1">
          <mxGeometry x="90" y="220" width="170" height="80" as="geometry" />
        </mxCell>
        <mxCell id="u45l-e3sz1boXGOpI4xn-48" style="edgeStyle=orthogonalEdgeStyle;rounded=1;orthogonalLoop=1;jettySize=auto;html=1;exitX=0.5;exitY=1;exitDx=0;exitDy=0;entryX=0.5;entryY=0;entryDx=0;entryDy=0;" parent="WIyWlLk6GJQsqaUBKTNV-1" source="u45l-e3sz1boXGOpI4xn-39" target="u45l-e3sz1boXGOpI4xn-47" edge="1">
          <mxGeometry relative="1" as="geometry" />
        </mxCell>
        <mxCell id="u45l-e3sz1boXGOpI4xn-39" value="Помилка автентифікації" style="rounded=0;whiteSpace=wrap;html=1;" parent="WIyWlLk6GJQsqaUBKTNV-1" vertex="1">
          <mxGeometry x="540" y="200" width="170" height="80" as="geometry" />
        </mxCell>
        <mxCell id="u45l-e3sz1boXGOpI4xn-52" style="edgeStyle=orthogonalEdgeStyle;rounded=1;orthogonalLoop=1;jettySize=auto;html=1;entryX=0;entryY=0.5;entryDx=0;entryDy=0;" parent="WIyWlLk6GJQsqaUBKTNV-1" source="u45l-e3sz1boXGOpI4xn-45" target="u45l-e3sz1boXGOpI4xn-47" edge="1">
          <mxGeometry relative="1" as="geometry" />
        </mxCell>
        <mxCell id="u45l-e3sz1boXGOpI4xn-45" value="Перенаправлення на потрібну сторінку" style="rounded=0;whiteSpace=wrap;html=1;" parent="WIyWlLk6GJQsqaUBKTNV-1" vertex="1">
          <mxGeometry x="90" y="340" width="170" height="80" as="geometry" />
        </mxCell>
        <mxCell id="u45l-e3sz1boXGOpI4xn-47" value="Кінець програми" style="rounded=1;whiteSpace=wrap;html=1;" parent="WIyWlLk6GJQsqaUBKTNV-1" vertex="1">
          <mxGeometry x="320" y="440" width="160" height="40" as="geometry" />
        </mxCell>
        <mxCell id="u45l-e3sz1boXGOpI4xn-54" value="" style="shape=curlyBracket;whiteSpace=wrap;html=1;rounded=1;flipH=1;labelPosition=right;verticalLabelPosition=middle;align=left;verticalAlign=middle;direction=west;" parent="WIyWlLk6GJQsqaUBKTNV-1" vertex="1">
          <mxGeometry x="-770" y="440" width="20" height="160" as="geometry" />
        </mxCell>
        <mxCell id="u45l-e3sz1boXGOpI4xn-61" value="&lt;h1 style=&quot;margin-top: 0px;&quot;&gt;ConnectWallet&lt;/h1&gt;&lt;div&gt;Відбувається ініціалізація криптогаманця, встановленого в системі за допомогою Ethereum Provider API, що надається бібліотекою ethers.js&lt;/div&gt;&lt;div&gt;&lt;br&gt;&lt;/div&gt;&lt;div&gt;Якщо криптогаманець не знайдено, ми використовуємо, наприклад, мобільний пристрій з наявним MetaMask&lt;/div&gt;" style="text;html=1;whiteSpace=wrap;overflow=hidden;rounded=0;" parent="WIyWlLk6GJQsqaUBKTNV-1" vertex="1">
          <mxGeometry x="-740" y="440" width="280" height="160" as="geometry" />
        </mxCell>
        <mxCell id="u45l-e3sz1boXGOpI4xn-62" value="" style="shape=curlyBracket;whiteSpace=wrap;html=1;rounded=1;flipH=1;labelPosition=right;verticalLabelPosition=middle;align=left;verticalAlign=middle;direction=east;" parent="WIyWlLk6GJQsqaUBKTNV-1" vertex="1">
          <mxGeometry x="-460" y="680" width="20" height="260" as="geometry" />
        </mxCell>
        <mxCell id="u45l-e3sz1boXGOpI4xn-64" style="edgeStyle=orthogonalEdgeStyle;rounded=1;orthogonalLoop=1;jettySize=auto;html=1;entryX=0.1;entryY=0.5;entryDx=0;entryDy=0;entryPerimeter=0;" parent="WIyWlLk6GJQsqaUBKTNV-1" source="u45l-e3sz1boXGOpI4xn-26" target="u45l-e3sz1boXGOpI4xn-62" edge="1">
          <mxGeometry relative="1" as="geometry">
            <Array as="points">
              <mxPoint x="-370" y="460" />
              <mxPoint x="-370" y="810" />
            </Array>
          </mxGeometry>
        </mxCell>
        <mxCell id="u45l-e3sz1boXGOpI4xn-66" value="&lt;h1 style=&quot;margin-top: 0px;&quot;&gt;Автентифікація&lt;/h1&gt;&lt;div&gt;&lt;div&gt;Запит на підпис: клієнтський додаток генерує унікальне повідомлення для підпису та надсилає його користувачу через MetaMask.&lt;/div&gt;&lt;div&gt;&lt;br&gt;&lt;/div&gt;&lt;div&gt;Підпис повідомлення: користувач підписує повідомлення за допомогою свого приватного ключа в MetaMask, що підтверджує його особу.&lt;/div&gt;&lt;div&gt;&lt;br&gt;&lt;/div&gt;&lt;div&gt;Відправка підпису: підписане повідомлення відправляється на сервер для перевірки.&lt;/div&gt;&lt;div&gt;&lt;br&gt;&lt;/div&gt;&lt;div&gt;Перевірка підпису: сервер використовує публічний ключ користувача для перевірки підпису та автентифікації користувача.&lt;/div&gt;&lt;/div&gt;" style="text;html=1;whiteSpace=wrap;overflow=hidden;rounded=0;" parent="WIyWlLk6GJQsqaUBKTNV-1" vertex="1">
          <mxGeometry x="-740" y="680" width="280" height="260" as="geometry" />
        </mxCell>
        <mxCell id="u45l-e3sz1boXGOpI4xn-67" value="" style="shape=curlyBracket;whiteSpace=wrap;html=1;rounded=1;labelPosition=left;verticalLabelPosition=middle;align=right;verticalAlign=middle;direction=west;" parent="WIyWlLk6GJQsqaUBKTNV-1" vertex="1">
          <mxGeometry x="660" y="680" width="20" height="140" as="geometry" />
        </mxCell>
        <mxCell id="u45l-e3sz1boXGOpI4xn-68" style="edgeStyle=orthogonalEdgeStyle;rounded=1;orthogonalLoop=1;jettySize=auto;html=1;exitX=1;exitY=0.5;exitDx=0;exitDy=0;entryX=0.1;entryY=0.5;entryDx=0;entryDy=0;entryPerimeter=0;" parent="WIyWlLk6GJQsqaUBKTNV-1" source="u45l-e3sz1boXGOpI4xn-39" target="u45l-e3sz1boXGOpI4xn-67" edge="1">
          <mxGeometry relative="1" as="geometry">
            <Array as="points">
              <mxPoint x="730" y="240" />
              <mxPoint x="730" y="750" />
            </Array>
          </mxGeometry>
        </mxCell>
        <mxCell id="u45l-e3sz1boXGOpI4xn-70" value="&lt;h1 style=&quot;margin-top: 0px;&quot;&gt;Помилка / Немає доступу&lt;/h1&gt;&lt;div&gt;Якщо доступ користувачеві заборонений - він отримає відповідне повідомлення про те, що його прав недостатньо для виконання цієї дій&lt;/div&gt;&lt;div&gt;&lt;br&gt;&lt;/div&gt;&lt;div&gt;При помилці автентифікації буде отримано відповідне повідомлення&lt;/div&gt;" style="text;html=1;whiteSpace=wrap;overflow=hidden;rounded=0;" parent="WIyWlLk6GJQsqaUBKTNV-1" vertex="1">
          <mxGeometry x="350" y="680" width="320" height="140" as="geometry" />
        </mxCell>
      </root>
    </mxGraphModel>
  </diagram>
</mxfile>
